# xmcd
# 
# Track frame offsets:
#     150
#     18948
#     38877
#     55713
#     80801
#     94837
#     110211
#     136237
#     150195
#     172818
# 
# Disc length: 2576
# 
# Revision: 0
# Processed by: cddbd v1.5.2PL0 Copyright (c) Steve Scherf et al.
# Submitted via: fre:ac v1.0.27
# 
DISCID=730a0e0a
DTITLE=Tire le coyote - Désherbage
DYEAR=2017
DGENRE=Folk
TTITLE0=Pouvoirs de glace
TTITLE1=Tes bras comme une muraille
TTITLE2=Toit cathédrale
TTITLE3=Le ciel est backorder
TTITLE4=Comment le dire
TTITLE5=Chanson d'eau douce
TTITLE6=Désherbage
TTITLE7=Les couleurs de notre équipe
TTITLE8=Fifille
TTITLE9=Jeu vidéo
EXTD=
EXTT0=
EXTT1=
EXTT2=
EXTT3=
EXTT4=
EXTT5=
EXTT6=
EXTT7=
EXTT8=
EXTT9=
PLAYORDER=
